s<?xml version="1.0" encoding="utf-8"?><!-- Uploaded to: SVG Repo, www.svgrepo.com, Generator: SVG Repo Mixer Tools -->
<svg class="indent" width="15px" height="15px" viewBox="0 0 24 24" fill="none" xmlns="http://www.w3.org/2000/svg">
<path class="primary" d="M6 4V12C6 12.663 6.26339 13.2989 6.73223 13.7678C7.20107 14.2366 7.83696 14.5 8.5 14.5H15V12C15 11.5956 15.2436 11.2309 15.6173 11.0761C15.991 10.9214 16.4211 11.0069 16.7071 11.2929L20.7071 15.2929C21.0976 15.6834 21.0976 16.3166 20.7071 16.7071L16.7071 20.7071C16.4211 20.9931 15.991 21.0787 15.6173 20.9239C15.2436 20.7691 15 20.4045 15 20V17.5H8.5C7.04131 17.5 5.64236 16.9205 4.61091 15.8891C3.57946 14.8576 3 13.4587 3 12V4C3 3.44772 3.44772 3 4 3H5C5.55228 3 6 3.44772 6 4Z" fill="#000000"/>
</svg>