<?xml version="1.0" encoding="UTF-8"?> <!-- Generator: Adobe Illustrator 23.1.0, SVG Export Plug-In . SVG Version: 6.00 Build 0) --> <svg xmlns="http://www.w3.org/2000/svg" xmlns:xlink="http://www.w3.org/1999/xlink" id="Layer_1" x="0px" y="0px" viewBox="0 0 1000 244.8" style="enable-background:new 0 0 1000 244.8;" xml:space="preserve"> <style type="text/css"> .st0{fill:#0075C9;} .st1{fill:#70D44B;} .st2{fill:#F18A00;} </style> <g> <path class="st0" d="M283.3,49.7c1.3,1.5,2.8,2.8,4.7,3.9c1.8,1.1,4,1.7,6.4,1.7c3.1,0,5.3-0.8,6.6-2.5c1.3-1.7,1.9-3.9,1.9-6.8 V1.8h17.9v46.2c0,3.6-0.6,6.9-1.9,9.8c-1.3,2.9-3,5.3-5.2,7.3c-2.2,2-4.8,3.5-7.8,4.5c-3,1-6.3,1.5-9.8,1.5 c-4.5,0-8.8-0.9-12.9-2.6c-4.2-1.7-7.7-4.3-10.5-7.8L283.3,49.7z"></path> <path class="st0" d="M364.9,70.9c-5.1,0-9.7-0.9-14-2.7c-4.3-1.8-8-4.2-11.1-7.4c-3.1-3.1-5.6-6.9-7.3-11.2 c-1.8-4.4-2.6-9.1-2.6-14.2c0-5.1,0.9-9.9,2.6-14.2c1.8-4.4,4.2-8.1,7.3-11.2c3.1-3.1,6.8-5.6,11.1-7.3c4.3-1.8,9-2.6,14-2.6 c5.1,0,9.7,0.9,14.1,2.6c4.3,1.8,8,4.2,11.1,7.3c3.1,3.1,5.5,6.9,7.3,11.2c1.8,4.4,2.6,9.1,2.6,14.2c0,5.1-0.9,9.9-2.6,14.2 c-1.8,4.4-4.2,8.1-7.3,11.2c-3.1,3.1-6.8,5.6-11.1,7.4C374.7,70,370,70.9,364.9,70.9 M364.9,54.1c2.6,0,5-0.5,7-1.5 c2.1-1,3.8-2.3,5.2-4c1.4-1.7,2.5-3.7,3.2-6c0.7-2.3,1.1-4.7,1.1-7.3c0-2.6-0.4-5-1.1-7.3c-0.7-2.3-1.8-4.3-3.2-6 c-1.4-1.7-3.2-3-5.2-4c-2.1-1-4.4-1.5-7-1.5c-2.6,0-5,0.5-7,1.5c-2.1,1-3.8,2.3-5.2,4c-1.4,1.7-2.5,3.7-3.2,6 c-0.7,2.3-1.1,4.7-1.1,7.3c0,2.6,0.4,5,1.1,7.3c0.7,2.3,1.8,4.3,3.2,6c1.4,1.7,3.2,3,5.2,4C360,53.6,362.3,54.1,364.9,54.1"></path> <rect x="409.5" y="1.8" class="st0" width="17.9" height="67.5"></rect> <polygon class="st0" points="440.1,1.8 456.4,1.8 482.3,39.5 482.3,1.8 500,1.8 500,69.3 484.7,69.3 457.8,30.6 457.8,69.3 440.1,69.3 "></polygon> <polygon class="st0" points="527.6,17.5 506.8,17.5 506.8,1.8 566.2,1.8 566.2,17.5 545.7,17.5 545.7,69.3 527.6,69.3 "></polygon> <path class="st0" d="M277.7,100.2h25.9c5.2,0,10,0.7,14.4,2c4.4,1.4,8.2,3.4,11.5,6.2c3.2,2.8,5.8,6.3,7.6,10.6 c1.8,4.3,2.7,9.4,2.7,15.3c0,5.6-0.9,10.5-2.8,14.6c-1.9,4.1-4.4,7.6-7.6,10.4c-3.2,2.8-7.1,4.9-11.5,6.3 c-4.4,1.4-9.2,2.1-14.4,2.1h-25.8V100.2z M302.9,151.9c5.9,0,10.4-1.7,13.6-5c3.2-3.3,4.8-7.7,4.8-13c0-2.7-0.4-5.1-1.1-7.3 c-0.7-2.2-1.9-4.1-3.4-5.7c-1.5-1.6-3.4-2.8-5.7-3.7c-2.3-0.9-5-1.3-8.2-1.3h-7.3v36H302.9z"></path> <polygon class="st0" points="349.3,100.2 397.8,100.2 397.8,115.7 367.2,115.7 367.2,126.1 392.4,126.1 392.4,140.7 367.2,140.7 367.2,152.2 400,152.2 400,167.7 349.3,167.7 "></polygon> <polygon class="st0" points="403.9,100.2 423.4,100.2 438.6,147.2 452.7,100.2 471.9,100.2 447.3,167.7 428.4,167.7 "></polygon> <polygon class="st0" points="478.3,100.2 526.9,100.2 526.9,115.7 496.2,115.7 496.2,126.1 521.4,126.1 521.4,140.7 496.2,140.7 496.2,152.2 529,152.2 529,167.7 478.3,167.7 "></polygon> <polygon class="st0" points="539,100.2 556.9,100.2 556.9,151.9 588.1,151.9 588.1,167.7 539,167.7 "></polygon> <path class="st0" d="M626.9,169.3c-5.1,0-9.7-0.9-14-2.7c-4.3-1.8-8-4.2-11.1-7.4c-3.1-3.1-5.6-6.9-7.3-11.2 c-1.8-4.4-2.6-9.1-2.6-14.2c0-5.1,0.9-9.9,2.6-14.2c1.8-4.4,4.2-8.1,7.3-11.2c3.1-3.1,6.8-5.6,11.1-7.3c4.3-1.8,9-2.6,14-2.6 s9.7,0.9,14.1,2.6c4.3,1.8,8,4.2,11.1,7.3c3.1,3.1,5.5,6.9,7.3,11.2c1.8,4.4,2.6,9.1,2.6,14.2c0,5.1-0.9,9.9-2.6,14.2 c-1.8,4.3-4.2,8.1-7.3,11.2c-3.1,3.1-6.8,5.6-11.1,7.4C636.7,168.4,632,169.3,626.9,169.3 M626.9,152.5c2.6,0,5-0.5,7-1.5 c2.1-1,3.8-2.3,5.2-4c1.4-1.7,2.5-3.7,3.2-6c0.7-2.3,1.1-4.7,1.1-7.3c0-2.6-0.4-5-1.1-7.3c-0.7-2.3-1.8-4.3-3.2-6 c-1.4-1.7-3.2-3-5.2-4c-2.1-1-4.4-1.5-7-1.5c-2.6,0-5,0.5-7,1.5c-2.1,1-3.8,2.3-5.2,4c-1.4,1.7-2.5,3.7-3.2,6 c-0.7,2.3-1.1,4.7-1.1,7.3c0,2.6,0.4,5,1.1,7.3c0.7,2.3,1.8,4.3,3.2,6c1.4,1.7,3.2,3,5.2,4C622,152,624.3,152.5,626.9,152.5"></path> <path class="st0" d="M671.6,100.2h27.5c3.6,0,6.9,0.5,9.9,1.5c2.9,1,5.4,2.4,7.5,4.2c2.1,1.9,3.7,4.2,4.9,7c1.1,2.8,1.7,6,1.7,9.7 c0,3.4-0.6,6.6-1.8,9.4c-1.2,2.8-2.8,5.2-4.9,7.2c-2.1,2-4.5,3.5-7.4,4.6c-2.9,1.1-6,1.6-9.5,1.6h-10.5v22.5h-17.5V100.2z M697.6,131.2c2.4,0,4.4-0.8,5.8-2.3c1.4-1.6,2.1-3.5,2.1-6c0-2.6-0.7-4.6-2-6.2c-1.3-1.6-3.3-2.3-6-2.3h-8.4v16.8H697.6z"></path> <polygon class="st0" points="732,100.2 749.1,100.2 765.5,129.7 781.6,100.2 798.7,100.2 801.9,167.7 783.8,167.7 782.2,128.1 770.3,151.2 760.5,151.2 747.4,128.1 746,167.7 728.8,167.7 "></polygon> <polygon class="st0" points="813.2,100.2 861.8,100.2 861.8,115.7 831.1,115.7 831.1,126.1 856.3,126.1 856.3,140.7 831.1,140.7 831.1,152.2 863.9,152.2 863.9,167.7 813.2,167.7 "></polygon> <polygon class="st0" points="873.9,100.2 890.1,100.2 916,137.9 916,100.2 933.7,100.2 933.7,167.7 918.5,167.7 891.6,129 891.6,167.7 873.9,167.7 "></polygon> <polygon class="st0" points="961.4,115.9 940.6,115.9 940.6,100.2 1000,100.2 1000,115.9 979.5,115.9 979.5,167.7 961.4,167.7 "></polygon> <path class="st0" d="M229.6,166.6H68.8c-2.3,0-4.2-1.9-4.2-4.2v-8.1c0-2.3,1.9-4.2,4.2-4.2h12.3h132v-132h-132v23.4 c0,2.3-1.9,4.2-4.2,4.2h-8.1c-2.3,0-4.2-1.9-4.2-4.2V1.6h165.1V166.6z"></path> <path class="st1" d="M113.1,54.8H41.9c-2.3,0-4.2,1.9-4.2,4.2v8.1c0,2.3,1.9,4.2,4.2,4.2h90V57.7h31.2c2.3,0,4.2-1.9,4.2-4.2v-8.1 c0-2.3-1.9-4.2-4.2-4.2h-50.1L132,54.8H113.1"></path> <path class="st1" d="M113.1,89.2H4.2c-2.3,0-4.2,1.9-4.2,4.2v8.1c0,2.3,1.9,4.2,4.2,4.2H132V92.1h60.6c2.3,0,4.2-1.9,4.2-4.2v-8.1 c0-2.3-1.9-4.2-4.2-4.2h-79.5L132,89.2H113.1"></path> <path class="st1" d="M113.1,123.6H25.2c-2.3,0-4.2,1.9-4.2,4.2v8.1c0,2.3,1.9,4.2,4.2,4.2H132v-13.6h60.6c2.3,0,4.2-1.9,4.2-4.2 v-8.1c0-2.3-1.9-4.2-4.2-4.2h-79.5l18.9,13.6H113.1"></path> <path class="st2" d="M113.1,41.2"></path> <polygon class="st0" points="275.5,200.7 305.5,200.7 305.5,210.7 286.9,210.7 286.9,219 301.3,219 301.3,228.4 286.9,228.4 286.9,243.7 275.5,243.7 "></polygon> <path class="st0" d="M343.3,244.7c-3.2,0-6.2-0.6-8.9-1.7c-2.7-1.1-5.1-2.7-7.1-4.7c-2-2-3.6-4.4-4.7-7.2c-1.1-2.8-1.7-5.8-1.7-9.1 c0-3.3,0.6-6.3,1.7-9.1c1.1-2.8,2.7-5.2,4.7-7.2c2-2,4.4-3.6,7.1-4.7c2.7-1.1,5.7-1.7,8.9-1.7c3.2,0,6.2,0.6,9,1.7 c2.7,1.1,5.1,2.7,7.1,4.7c2,2,3.5,4.4,4.6,7.2c1.1,2.8,1.7,5.8,1.7,9.1c0,3.3-0.6,6.3-1.7,9.1c-1.1,2.8-2.7,5.2-4.6,7.2 c-2,2-4.3,3.6-7.1,4.7C349.5,244.2,346.5,244.7,343.3,244.7 M343.3,234.1c1.7,0,3.2-0.3,4.5-0.9c1.3-0.6,2.4-1.5,3.3-2.5 c0.9-1.1,1.6-2.3,2.1-3.8c0.5-1.5,0.7-3,0.7-4.6c0-1.6-0.2-3.2-0.7-4.6c-0.5-1.5-1.2-2.7-2.1-3.8c-0.9-1.1-2-1.9-3.3-2.5 c-1.3-0.6-2.8-0.9-4.5-0.9c-1.7,0-3.2,0.3-4.5,0.9c-1.3,0.6-2.4,1.5-3.3,2.5c-0.9,1.1-1.6,2.3-2.1,3.8c-0.5,1.5-0.7,3-0.7,4.6 c0,1.6,0.2,3.2,0.7,4.6c0.5,1.5,1.2,2.7,2.1,3.8c0.9,1.1,2,1.9,3.3,2.5C340.2,233.7,341.6,234.1,343.3,234.1"></path> <path class="st0" d="M384.3,200.7h11.4v25.2c0,2.4,0.5,4.3,1.6,5.8c1.1,1.5,2.9,2.3,5.4,2.3c2.5,0,4.3-0.8,5.4-2.3 c1.1-1.5,1.6-3.4,1.6-5.8v-25.2h11.5V227c0,2.8-0.5,5.2-1.4,7.4c-0.9,2.2-2.2,4.1-3.8,5.6c-1.7,1.5-3.6,2.7-5.9,3.5 c-2.3,0.8-4.7,1.2-7.4,1.2c-2.7,0-5.2-0.4-7.5-1.2c-2.3-0.8-4.2-2-5.9-3.5c-1.7-1.5-2.9-3.4-3.8-5.6c-0.9-2.2-1.4-4.7-1.4-7.5 V200.7z"></path> <polygon class="st0" points="442.2,200.7 452.6,200.7 469.1,224.7 469.1,200.7 480.4,200.7 480.4,243.7 470.6,243.7 453.5,219 453.5,243.7 442.2,243.7 "></polygon> <path class="st0" d="M501.5,200.7H518c3.3,0,6.4,0.4,9.2,1.3c2.8,0.9,5.3,2.2,7.3,3.9c2.1,1.8,3.7,4,4.8,6.8c1.2,2.7,1.7,6,1.7,9.7 c0,3.6-0.6,6.7-1.8,9.3c-1.2,2.6-2.8,4.9-4.9,6.6c-2.1,1.8-4.5,3.1-7.3,4c-2.8,0.9-5.9,1.3-9.2,1.3h-16.4V200.7z M517.5,233.7 c3.7,0,6.6-1.1,8.7-3.2c2-2.1,3.1-4.9,3.1-8.3c0-1.7-0.2-3.3-0.7-4.7c-0.5-1.4-1.2-2.6-2.2-3.6c-1-1-2.2-1.8-3.6-2.3 c-1.5-0.6-3.2-0.8-5.2-0.8h-4.6v22.9H517.5z"></path> <path class="st0" d="M570.4,200.7h13.1l15.2,43h-12.3l-2.8-8.9h-14.4l-2.8,8.9h-11.8L570.4,200.7z M581.3,226.5l-4.8-15.8l-5,15.8 H581.3z"></path> <polygon class="st0" points="622,210.7 608.8,210.7 608.8,200.7 646.6,200.7 646.6,210.7 633.5,210.7 633.5,243.7 622,243.7 "></polygon> <rect x="664.1" y="200.7" class="st0" width="11.4" height="43"></rect> <path class="st0" d="M717.1,244.7c-3.2,0-6.2-0.6-8.9-1.7c-2.7-1.1-5.1-2.7-7.1-4.7c-2-2-3.6-4.4-4.7-7.2c-1.1-2.8-1.7-5.8-1.7-9.1 c0-3.3,0.6-6.3,1.7-9.1c1.1-2.8,2.7-5.2,4.7-7.2c2-2,4.4-3.6,7.1-4.7c2.7-1.1,5.7-1.7,8.9-1.7c3.2,0,6.2,0.6,9,1.7 c2.7,1.1,5.1,2.7,7.1,4.7c2,2,3.5,4.4,4.6,7.2c1.1,2.8,1.7,5.8,1.7,9.1c0,3.3-0.6,6.3-1.7,9.1c-1.1,2.8-2.7,5.2-4.6,7.2 c-2,2-4.3,3.6-7.1,4.7C723.3,244.2,720.4,244.7,717.1,244.7 M717.1,234.1c1.7,0,3.2-0.3,4.5-0.9c1.3-0.6,2.4-1.5,3.3-2.5 c0.9-1.1,1.6-2.3,2.1-3.8c0.5-1.5,0.7-3,0.7-4.6c0-1.6-0.2-3.2-0.7-4.6c-0.5-1.5-1.2-2.7-2.1-3.8c-0.9-1.1-2-1.9-3.3-2.5 c-1.3-0.6-2.8-0.9-4.5-0.9c-1.7,0-3.2,0.3-4.5,0.9c-1.3,0.6-2.4,1.5-3.3,2.5c-0.9,1.1-1.6,2.3-2.1,3.8c-0.5,1.5-0.7,3-0.7,4.6 c0,1.6,0.2,3.2,0.7,4.6c0.5,1.5,1.2,2.7,2.1,3.8c0.9,1.1,2,1.9,3.3,2.5C714,233.7,715.5,234.1,717.1,234.1"></path> <polygon class="st0" points="758.6,200.7 769,200.7 785.5,224.7 785.5,200.7 796.8,200.7 796.8,243.7 787.1,243.7 769.9,219 769.9,243.7 758.6,243.7 "></polygon> </g> </svg> 